<svg width="24" height="24" viewBox="0 0 24 24" fill="none" xmlns="http://www.w3.org/2000/svg">
<path d="M21.1409 17.5316C20.3965 16.7816 18.5937 15.687 17.719 15.2459C16.58 14.6722 16.4862 14.6253 15.5909 15.2905C14.9937 15.7344 14.5967 16.1309 13.8978 15.9819C13.1989 15.8328 11.6801 14.9923 10.3503 13.6667C9.02042 12.3411 8.1312 10.7783 7.98167 10.0817C7.83214 9.38515 8.23527 8.99281 8.67495 8.39421C9.29464 7.55046 9.24777 7.40984 8.71808 6.27078C8.30511 5.38484 7.1787 3.5989 6.42589 2.85828C5.62058 2.06281 5.62058 2.20343 5.10167 2.41906C4.67922 2.5968 4.27394 2.81286 3.89089 3.06453C3.14089 3.56281 2.72464 3.97671 2.43355 4.59874C2.14246 5.22078 2.01167 6.67906 3.51496 9.41C5.01824 12.1409 6.07292 13.5373 8.25589 15.7142C10.4389 17.8911 12.1175 19.0616 14.5714 20.4378C17.607 22.138 18.7714 21.8066 19.3953 21.5159C20.0192 21.2253 20.4349 20.8128 20.9342 20.0628C21.1865 19.6804 21.403 19.2756 21.581 18.8534C21.7971 18.3364 21.9378 18.3364 21.1409 17.5316Z" stroke="#629E58" stroke-width="1.00189" stroke-miterlimit="10"/>
</svg>
