<svg width="32" height="32" viewBox="0 0 32 32" fill="none" xmlns="http://www.w3.org/2000/svg">
<path d="M5.46805 23.7485C5.54305 23.4748 5.37868 23.0942 5.2218 22.8198C5.17317 22.7378 5.12018 22.6586 5.06305 22.5823C3.71759 20.5418 3.00047 18.1514 3.00055 15.7073C2.97805 8.69167 8.79555 2.99854 15.9893 2.99854C22.2631 2.99854 27.5006 7.34479 28.7237 13.1142C28.9072 13.9695 29 14.8418 29.0006 15.7167C29.0006 22.7423 23.4074 28.5248 16.2137 28.5248C15.0693 28.5248 13.5262 28.2373 12.6843 28.0017C11.8424 27.766 11.0018 27.4535 10.7849 27.3698C10.5629 27.2845 10.3271 27.2407 10.0893 27.2404C9.82996 27.2395 9.57312 27.2912 9.3343 27.3923L5.0943 28.9223C5.00165 28.9623 4.90344 28.9881 4.80305 28.9985C4.72365 28.9983 4.64508 28.9823 4.57189 28.9515C4.4987 28.9207 4.43235 28.8757 4.37666 28.8191C4.32098 28.7625 4.27708 28.6954 4.24749 28.6217C4.21791 28.548 4.20323 28.4692 4.2043 28.3898C4.20952 28.3201 4.22209 28.2512 4.2418 28.1842L5.46805 23.7485Z" stroke="black" stroke-width="1.00189" stroke-miterlimit="10" stroke-linecap="round"/>
<path d="M10.001 18.0025C11.1064 18.0025 12.0025 17.1064 12.0025 16.001C12.0025 14.8956 11.1064 13.9996 10.001 13.9996C8.8956 13.9996 7.99951 14.8956 7.99951 16.001C7.99951 17.1064 8.8956 18.0025 10.001 18.0025Z" fill="black"/>
<path d="M16.001 18.0025C17.1064 18.0025 18.0025 17.1064 18.0025 16.001C18.0025 14.8956 17.1064 13.9996 16.001 13.9996C14.8956 13.9996 13.9995 14.8956 13.9995 16.001C13.9995 17.1064 14.8956 18.0025 16.001 18.0025Z" fill="black"/>
<path d="M22.0015 18.0025C23.1069 18.0025 24.0029 17.1064 24.0029 16.001C24.0029 14.8956 23.1069 13.9996 22.0015 13.9996C20.8961 13.9996 20 14.8956 20 16.001C20 17.1064 20.8961 18.0025 22.0015 18.0025Z" fill="black"/>
</svg>
