<svg width="24" height="24" viewBox="0 0 24 24" fill="none" xmlns="http://www.w3.org/2000/svg">
<path d="M18.9032 1.49842H13.1409C12.9618 1.49828 12.7899 1.56907 12.6628 1.69529L1.14278 13.2125C0.890594 13.4659 0.749023 13.8089 0.749023 14.1664C0.749023 14.5239 0.890594 14.8669 1.14278 15.1203L6.62715 20.6047C6.88065 20.8569 7.2237 20.9985 7.58129 20.9985C7.93889 20.9985 8.28193 20.8569 8.53543 20.6047L20.0522 9.09217C20.1784 8.96507 20.2492 8.79317 20.249 8.61404V2.84842C20.2499 2.67124 20.2157 2.49565 20.1484 2.33175C20.0812 2.16784 19.9821 2.01886 19.857 1.89338C19.732 1.76791 19.5833 1.66841 19.4196 1.60063C19.2559 1.53284 19.0804 1.4981 18.9032 1.49842Z" stroke="#4F4E4D" stroke-width="1.00189" stroke-linecap="round" stroke-linejoin="round"/>
<path d="M16.5001 6.75123C16.2032 6.75123 15.913 6.66319 15.6662 6.49825C15.4193 6.33331 15.2269 6.09887 15.1133 5.82458C14.9997 5.55028 14.9699 5.24846 15.0279 4.95728C15.0858 4.66609 15.2288 4.39862 15.4387 4.18869C15.6486 3.97875 15.9161 3.83579 16.2073 3.77787C16.4985 3.71995 16.8003 3.74967 17.0746 3.86329C17.3489 3.9769 17.5833 4.1693 17.7483 4.41616C17.9132 4.66301 18.0012 4.95324 18.0012 5.25013C18.0012 5.64825 17.8431 6.03006 17.5616 6.31157C17.2801 6.59308 16.8982 6.75123 16.5001 6.75123Z" fill="#4F4E4D"/>
<path d="M10.7803 22.499L23.0615 10.2178C23.1226 10.1562 23.1706 10.083 23.2029 10.0024C23.2351 9.92191 23.2508 9.83573 23.249 9.74903V3.74902" stroke="#4F4E4D" stroke-width="1.00189" stroke-linecap="round" stroke-linejoin="round"/>
</svg>
