<svg width="24" height="24" viewBox="0 0 24 24" fill="none" xmlns="http://www.w3.org/2000/svg">
<path d="M6.00068 14.2533C7.24423 14.2533 8.25233 13.2452 8.25233 12.0017C8.25233 10.7581 7.24423 9.75 6.00068 9.75C4.75712 9.75 3.74902 10.7581 3.74902 12.0017C3.74902 13.2452 4.75712 14.2533 6.00068 14.2533Z" stroke="#4F4E4D" stroke-width="1.00189" stroke-linecap="round" stroke-linejoin="round"/>
<path d="M18.0007 7.5052C19.2442 7.5052 20.2523 6.4971 20.2523 5.25355C20.2523 4.00999 19.2442 3.00189 18.0007 3.00189C16.7571 3.00189 15.749 4.00999 15.749 5.25355C15.749 6.4971 16.7571 7.5052 18.0007 7.5052Z" stroke="#4F4E4D" stroke-width="1.00189" stroke-linecap="round" stroke-linejoin="round"/>
<path d="M18.0007 21.0045C19.2442 21.0045 20.2523 19.9964 20.2523 18.7528C20.2523 17.5093 19.2442 16.5012 18.0007 16.5012C16.7571 16.5012 15.749 17.5093 15.749 18.7528C15.749 19.9964 16.7571 21.0045 18.0007 21.0045Z" stroke="#4F4E4D" stroke-width="1.00189" stroke-linecap="round" stroke-linejoin="round"/>
<path d="M7.95996 13.1049L16.0396 17.6496" stroke="#4F4E4D" stroke-width="1.00189" stroke-linecap="round" stroke-linejoin="round"/>
<path d="M16.0396 6.3537L7.95996 10.8984" stroke="#4F4E4D" stroke-width="1.00189" stroke-linecap="round" stroke-linejoin="round"/>
</svg>
