<svg width="24" height="24" viewBox="0 0 24 24" fill="none" xmlns="http://www.w3.org/2000/svg">
<path d="M5.90527 8.99993H2.62402C2.52457 8.99993 2.42918 9.03944 2.35886 9.10976C2.28853 9.18009 2.24902 9.27547 2.24902 9.37493V14.6249C2.24902 14.7244 2.28853 14.8198 2.35886 14.8901C2.42918 14.9604 2.52457 14.9999 2.62402 14.9999H5.88887C6.06174 14.9986 6.22973 15.0572 6.36418 15.1659L10.6518 18.6763C10.7077 18.7174 10.7737 18.7422 10.8428 18.7479C10.9118 18.7537 10.9811 18.7402 11.043 18.709C11.1048 18.6778 11.1568 18.6301 11.1932 18.5711C11.2296 18.5121 11.2489 18.4442 11.249 18.3749V5.62493C11.2489 5.55564 11.2296 5.48775 11.1932 5.42877C11.1568 5.3698 11.1048 5.32205 11.043 5.29083C10.9811 5.25961 10.9118 5.24614 10.8428 5.25191C10.7737 5.25768 10.7077 5.28247 10.6518 5.32352L6.36418 8.83399C6.23593 8.94231 6.07315 9.00117 5.90527 8.99993Z" stroke="#4F4E4D" stroke-width="1.00189" stroke-linecap="round" stroke-linejoin="round"/>
<path d="M15.001 15.0009C15.4576 14.0923 15.7511 13.0863 15.7511 12.0005C15.7511 10.8997 15.4698 9.918 15.001 9.00006" stroke="#4F4E4D" stroke-width="1.00189" stroke-linecap="round" stroke-linejoin="round"/>
<path d="M17.25 17.2484C18.1631 15.6584 18.75 14.2455 18.75 11.9984C18.75 9.75116 18.1875 8.35429 17.25 6.74835" stroke="#4F4E4D" stroke-width="1.00189" stroke-linecap="round" stroke-linejoin="round"/>
<path d="M19.499 19.4997C20.9053 17.3434 21.749 15.2139 21.749 11.9997C21.749 8.78548 20.9053 6.70282 19.499 4.49969" stroke="#4F4E4D" stroke-width="1.00189" stroke-linecap="round" stroke-linejoin="round"/>
</svg>
